<?xml version="1.0" standalone="no"?>
<!DOCTYPE svg PUBLIC "-//W3C//DTD SVG 1.1//EN"
"http://www.w3.org/Graphics/SVG/1.1/DTD/svg11.dtd">
<svg xmlns="http://www.w3.org/2000/svg" version="1.1">
<g transform="translate(20,126.6) scale(15)" font-family="Courier">
	<text x="0" y="1" font-size="1">A</text>
	<text x="0.6" y="1" font-size="1">+</text>
	<text x="0" y="0" font-size="1" transform="translate(1.2,4.265256) scale(1,16.9708)">(</text>
	<text x="0" y="0" font-size="1" transform="translate(1.8,3.791832) scale(1,10.2676)">(</text>
	<text x="2.4" y="-1.48" font-size="1">1</text>
	<line x1="2.4" y1="-1.06" x2="3.0" y2="-1.06" stroke-width="0.03" stroke="black"/>
	<text x="2.4" y="0.3" font-size="1">A</text>
	<line x1="2.4" y1="0.72" x2="3.0" y2="0.72" stroke-width="0.03" stroke="black"/>
	<text x="2.4" y="1.88" font-size="1">B</text>
	<line x1="2.4" y1="2.3" x2="3.0" y2="2.3" stroke-width="0.03" stroke="black"/>
	<text x="2.4" y="3.66" font-size="1">C</text>
	<line x1="2.4" y1="4.08" x2="3.0" y2="4.08" stroke-width="0.03" stroke="black"/>
	<text x="2.4" y="5.44" font-size="1">x</text>
	<text x="0" y="0" font-size="1" transform="translate(3.0,3.791832) scale(1,10.2676)">)</text>
	<text x="3.6" y="1" font-size="1">-</text>
	<text x="0" y="0" font-size="1" transform="translate(4.2,0.431832) scale(1,10.2676)">(</text>
	<text x="4.8" y="-5.04" font-size="1">2</text>
	<line x1="4.8" y1="-4.62" x2="5.4" y2="-4.62" stroke-width="0.03" stroke="black"/>
	<text x="4.8" y="-3.26" font-size="1">D</text>
	<line x1="4.8" y1="-2.84" x2="5.4" y2="-2.84" stroke-width="0.03" stroke="black"/>
	<text x="4.8" y="-1.48" font-size="1">E</text>
	<line x1="4.8" y1="-1.06" x2="5.4" y2="-1.06" stroke-width="0.03" stroke="black"/>
	<text x="4.8" y="0.3" font-size="1">F</text>
	<line x1="4.8" y1="0.72" x2="5.4" y2="0.72" stroke-width="0.03" stroke="black"/>
	<text x="4.8" y="2.08" font-size="1">y</text>
	<text x="0" y="0" font-size="1" transform="translate(5.4,0.431832) scale(1,10.2676)">)</text>
	<text x="6.0" y="1" font-size="1">*</text>
	<text x="0" y="0" font-size="1" transform="translate(6.6,5.471832) scale(1,10.2676)">(</text>
	<text x="7.2" y="0.3" font-size="1">3</text>
	<line x1="7.2" y1="0.72" x2="7.8" y2="0.72" stroke-width="0.03" stroke="black"/>
	<text x="7.2" y="1.78" font-size="1">G</text>
	<line x1="7.2" y1="2.2" x2="7.8" y2="2.2" stroke-width="0.03" stroke="black"/>
	<text x="7.2" y="3.56" font-size="1">H</text>
	<line x1="7.2" y1="3.98" x2="7.8" y2="3.98" stroke-width="0.03" stroke="black"/>
	<text x="7.2" y="5.34" font-size="1">I</text>
	<line x1="7.2" y1="5.76" x2="7.8" y2="5.76" stroke-width="0.03" stroke="black"/>
	<text x="7.2" y="7.12" font-size="1">z</text>
	<text x="0" y="0" font-size="1" transform="translate(7.8,5.471832) scale(1,10.2676)">)</text>
	<text x="8.4" y="1" font-size="1">+</text>
	<text x="0" y="0" font-size="1" transform="translate(9.0,0.9606) scale(1,1.33)">(</text>
	<text x="9.6" y="1" font-size="1">A</text>
	<text x="0" y="0" font-size="1" transform="translate(10.2,0.9606) scale(1,1.33)">)</text>
	<text x="10.8" y="1" font-size="1">+</text>
	<text x="0" y="0" font-size="1" transform="translate(11.4,1.638408) scale(1,3.5644)">(</text>
	<text x="12.0" y="0.3" font-size="1">A</text>
	<line x1="12.0" y1="0.72" x2="12.6" y2="0.72" stroke-width="0.03" stroke="black"/>
	<text x="12.0" y="2.08" font-size="1">B</text>
	<text x="0" y="0" font-size="1" transform="translate(12.6,1.638408) scale(1,3.5644)">)</text>
	<text x="0" y="0" font-size="1" transform="translate(13.2,4.265256) scale(1,16.9708)">)</text>
	<text x="13.8" y="1" font-size="1">-</text>
	<text x="14.4" y="1" font-size="1">2</text>
</g>
</svg>