<?xml version="1.0" standalone="no"?>
<!DOCTYPE svg PUBLIC "-//W3C//DTD SVG 1.1//EN"
"http://www.w3.org/Graphics/SVG/1.1/DTD/svg11.dtd">
<svg xmlns="http://www.w3.org/2000/svg" version="1.1">
<g transform="translate(20,83.28) scale(15)" font-family="Courier">
	<text x="0" y="0" font-size="1" transform="translate(0,2.4329724) scale(1,8.71682)">(</text>
	<text x="0" y="0" font-size="1" transform="translate(0.6,1.5385068) scale(1,7.15274)">(</text>
	<text x="1.2" y="1" font-size="1">a</text>
	<text x="0" y="0" font-size="0.7" transform="translate(1.8,-0.493784) scale(1,5.7988)">(</text>
	<text x="2.22" y="-2.082" font-size="0.7">1</text>
	<line x1="2.22" y1="-1.788" x2="2.64" y2="-1.788" stroke-width="0.03" stroke="black"/>
	<text x="2.22" y="-0.836" font-size="0.7">2</text>
	<line x1="2.22" y1="-0.542" x2="2.64" y2="-0.542" stroke-width="0.03" stroke="black"/>
	<text x="2.22" y="0.41" font-size="0.7">3</text>
	<text x="0" y="0" font-size="0.7" transform="translate(2.64,-0.493784) scale(1,5.7988)">)</text>
	<text x="0" y="0" font-size="0.7" transform="translate(1.8,2.234408) scale(1,3.5644)">(</text>
	<text x="2.22" y="1.49" font-size="0.7">b</text>
	<line x1="2.22" y1="1.784" x2="2.64" y2="1.784" stroke-width="0.03" stroke="black"/>
	<text x="2.22" y="2.736" font-size="0.7">c</text>
	<text x="0" y="0" font-size="0.7" transform="translate(2.64,2.234408) scale(1,3.5644)">)</text>
	<text x="0" y="0" font-size="1" transform="translate(3.06,1.5385068) scale(1,7.15274)">)</text>
	<text x="0" y="0" font-size="1" transform="translate(3.66,2.7145068) scale(1,7.15274)">(</text>
	<text x="4.26" y="1" font-size="1">a</text>
	<text x="0" y="0" font-size="0.7" transform="translate(4.86,-0.091592) scale(1,3.5644)">(</text>
	<text x="5.28" y="-0.836" font-size="0.7">b</text>
	<line x1="5.28" y1="-0.542" x2="5.7" y2="-0.542" stroke-width="0.03" stroke="black"/>
	<text x="5.28" y="0.41" font-size="0.7">c</text>
	<text x="0" y="0" font-size="0.7" transform="translate(5.7,-0.091592) scale(1,3.5644)">)</text>
	<text x="0" y="0" font-size="0.7" transform="translate(4.86,3.008216) scale(1,5.7988)">(</text>
	<text x="5.28" y="1.42" font-size="0.7">1</text>
	<line x1="5.28" y1="1.714" x2="5.7" y2="1.714" stroke-width="0.03" stroke="black"/>
	<text x="5.28" y="2.666" font-size="0.7">2</text>
	<line x1="5.28" y1="2.96" x2="5.7" y2="2.96" stroke-width="0.03" stroke="black"/>
	<text x="5.28" y="3.912" font-size="0.7">3</text>
	<text x="0" y="0" font-size="0.7" transform="translate(5.7,3.008216) scale(1,5.7988)">)</text>
	<text x="0" y="0" font-size="1" transform="translate(6.12,2.7145068) scale(1,7.15274)">)</text>
	<text x="0" y="0" font-size="1" transform="translate(6.72,2.4329724) scale(1,8.71682)">)</text>
</g>
</svg>