<?xml version="1.0" standalone="no"?>
<!DOCTYPE svg PUBLIC "-//W3C//DTD SVG 1.1//EN"
"http://www.w3.org/Graphics/SVG/1.1/DTD/svg11.dtd">
<svg xmlns="http://www.w3.org/2000/svg" version="1.1">
<g transform="translate(20,65.64) scale(15)" font-family="Courier">
	<text x="0" y="0" font-size="1" transform="translate(0,0.9255756) scale(1,4.02458)">(</text>
	<text x="0.6" y="1" font-size="1">a</text>
	<text x="0" y="0" font-size="0.7" transform="translate(1.2,-0.091592) scale(1,3.5644)">(</text>
	<text x="0" y="0" font-size="0.7" transform="translate(1.62,-0.9354) scale(1,1.33)">(</text>
	<text x="2.04" y="-0.836" font-size="0.7">b</text>
	<text x="2.46" y="-0.836" font-size="0.7">+</text>
	<text x="2.88" y="-0.836" font-size="0.7">c</text>
	<text x="0" y="0" font-size="0.7" transform="translate(3.3,-0.9354) scale(1,1.33)">)</text>
	<line x1="1.62" y1="-0.542" x2="3.72" y2="-0.542" stroke-width="0.03" stroke="black"/>
	<text x="2.46" y="0.41" font-size="0.7">d</text>
	<text x="0" y="0" font-size="0.7" transform="translate(3.72,-0.091592) scale(1,3.5644)">)</text>
	<text x="0" y="0" font-size="0.7" transform="translate(1.2,1.4606) scale(1,1.33)">(</text>
	<text x="1.62" y="1.56" font-size="0.7">b</text>
	<text x="2.04" y="1.56" font-size="0.7">+</text>
	<text x="2.46" y="1.56" font-size="0.7">c</text>
	<text x="0" y="0" font-size="0.7" transform="translate(2.88,1.4606) scale(1,1.33)">)</text>
	<text x="0" y="0" font-size="1" transform="translate(4.14,0.9255756) scale(1,4.02458)">)</text>
</g>
</svg>