<?xml version="1.0" standalone="no"?>
<!DOCTYPE svg PUBLIC "-//W3C//DTD SVG 1.1//EN"
"http://www.w3.org/Graphics/SVG/1.1/DTD/svg11.dtd">
<svg xmlns="http://www.w3.org/2000/svg" version="1.1">
<g transform="translate(20,90.84) scale(15)" font-family="Courier">
	<text x="0" y="0" font-size="1" transform="translate(0,1.5197696) scale(1,8.00128)">(</text>
	<text x="0.6" y="-0.78" font-size="1">2</text>
	<text x="1.2" y="-0.78" font-size="1">*</text>
	<text x="0" y="0" font-size="1" transform="translate(1.8,-0.3752464) scale(1,4.86248)">(</text>
	<text x="2.4" y="-0.78" font-size="1">A</text>
	<text x="3.0" y="-1.37" font-size="0.7">2</text>
	<text x="3.42" y="-0.78" font-size="1">+</text>
	<text x="4.02" y="-0.78" font-size="1">X</text>
	<text x="4.62" y="-0.22" font-size="0.7">i</text>
	<text x="5.04" y="-0.78" font-size="1">+</text>
	<text x="5.64" y="-0.78" font-size="1">X</text>
	<text x="6.24" y="-0.22" font-size="0.7">i</text>
	<text x="6.66" y="-0.22" font-size="0.7">+</text>
	<text x="7.08" y="-0.22" font-size="0.7">2</text>
	<text x="6.24" y="-1.37" font-size="0.7">3</text>
	<text x="7.5" y="-0.78" font-size="1">-</text>
	<text x="8.1" y="-0.78" font-size="1">4</text>
	<text x="0" y="0" font-size="0.7" transform="translate(8.7,-1.871592) scale(1,3.5644)">(</text>
	<text x="9.12" y="-2.616" font-size="0.7">3</text>
	<line x1="9.12" y1="-2.322" x2="9.54" y2="-2.322" stroke-width="0.03" stroke="black"/>
	<text x="9.12" y="-1.37" font-size="0.7">2</text>
	<text x="0" y="0" font-size="0.7" transform="translate(9.54,-1.871592) scale(1,3.5644)">)</text>
	<text x="9.96" y="-2.126" font-size="0.7">*</text>
	<text x="10.38" y="-2.126" font-size="0.7">Y</text>
	<text x="10.8" y="-2.539" font-size="0.49">5</text>
	<text x="10.8" y="-1.734" font-size="0.49">j</text>
	<text x="11.094" y="-0.78" font-size="1">+</text>
	<text x="0" y="0" font-size="1" transform="translate(11.694,-0.141592) scale(1,3.5644)">(</text>
	<text x="12.594" y="-1.48" font-size="1">2</text>
	<text x="13.194" y="-1.48" font-size="1">5</text>
	<line x1="12.294" y1="-1.06" x2="14.094" y2="-1.06" stroke-width="0.03" stroke="black"/>
	<text x="12.294" y="0.3" font-size="1">1</text>
	<text x="12.894" y="0.3" font-size="1">3</text>
	<text x="13.494" y="0.3" font-size="1">3</text>
	<text x="0" y="0" font-size="1" transform="translate(14.094,-0.141592) scale(1,3.5644)">)</text>
	<text x="0" y="0" font-size="1" transform="translate(14.694,-0.3752464) scale(1,4.86248)">)</text>
	<line x1="0.6" y1="0.72" x2="15.294" y2="0.72" stroke-width="0.03" stroke="black"/>
	<text x="6.69" y="2.76" font-size="1">5</text>
	<text x="7.29" y="2.76" font-size="1">*</text>
	<text x="7.89" y="2.76" font-size="1">b</text>
	<text x="8.49" y="2.17" font-size="0.7">3</text>
	<text x="8.91" y="1.757" font-size="0.49">2</text>
	<text x="0" y="0" font-size="1" transform="translate(15.294,1.5197696) scale(1,8.00128)">)</text>
</g>
</svg>