<?xml version="1.0" standalone="no"?>
<!DOCTYPE svg PUBLIC "-//W3C//DTD SVG 1.1//EN"
"http://www.w3.org/Graphics/SVG/1.1/DTD/svg11.dtd">
<svg xmlns="http://www.w3.org/2000/svg" version="1.1">
<g transform="translate(20,55.14) scale(15)" font-family="Courier">
	<text x="0" y="0" font-size="1" transform="translate(0,1.5004569) scale(1,3.805795)">(</text>
	<text x="0" y="0" font-size="1" transform="translate(0.6,1.7101713) scale(1,2.640715)">(</text>
	<text x="1.2" y="1" font-size="1">1</text>
	<text x="1.8" y="1.56" font-size="0.7">2</text>
	<text x="2.22" y="1.952" font-size="0.49">3</text>
	<text x="2.514" y="2.2264" font-size="0.343">4</text>
	<text x="0" y="0" font-size="1" transform="translate(2.7198,1.7101713) scale(1,2.640715)">)</text>
	<text x="0" y="0" font-size="1" transform="translate(3.3198,1.7101713) scale(1,2.640715)">(</text>
	<text x="3.9198" y="1" font-size="1">1</text>
	<text x="4.5198" y="1.56" font-size="0.7">2</text>
	<text x="4.9398" y="1.952" font-size="0.49">3</text>
	<text x="5.2338" y="2.2264" font-size="0.343">4</text>
	<text x="0" y="0" font-size="1" transform="translate(5.4396,1.7101713) scale(1,2.640715)">)</text>
	<text x="0" y="0" font-size="1" transform="translate(6.0396,0.7508856) scale(1,2.49508)">(</text>
	<text x="6.6396" y="1" font-size="1">1</text>
	<text x="7.2396" y="0.41" font-size="0.7">2</text>
	<text x="7.6596" y="-0.003" font-size="0.49">3</text>
	<text x="7.9536" y="-0.2921" font-size="0.343">4</text>
	<text x="0" y="0" font-size="1" transform="translate(8.1594,0.7508856) scale(1,2.49508)">)</text>
	<text x="0" y="0" font-size="1" transform="translate(8.7594,0.7508856) scale(1,2.49508)">(</text>
	<text x="9.3594" y="1" font-size="1">1</text>
	<text x="9.9594" y="0.41" font-size="0.7">2</text>
	<text x="10.3794" y="-0.003" font-size="0.49">3</text>
	<text x="10.6734" y="-0.2921" font-size="0.343">4</text>
	<text x="0" y="0" font-size="1" transform="translate(10.8792,0.7508856) scale(1,2.49508)">)</text>
	<text x="0" y="0" font-size="1" transform="translate(11.4792,1.5004569) scale(1,3.805795)">)</text>
</g>
</svg>